PathFileType	4	(X/Y/Z)	TVC_26_BWA6_walk_RCNL2025.trc
DataRate	CameraRate	NumFrames	NumMarkers	Units	OrigDataRate	OrigDataStartFrame	OrigNumFrames
100	100	5	27	mm	100	221	588
Frame#	Time	R_Shoulder			L_Shoulder			C7			J_Notch			R_Elbow			L_Elbow			R_Wrist			L_Wrist			R_Asis			L_Asis			R_Psis			L_Psis			Sacral			Thoracic			Sternum			R_Thigh_Lateral			R_Knee_Lateral			R_Shank_Lateral			R_Ankle_Lateral			R_Heel			R_Toe			L_Thigh_Lateral			L_Knee_Lateral			L_Shank_Lateral			L_Ankle_Lateral			L_Heel			L_Toe		
		X1	Y1	Z1	X2	Y2	Z2	X3	Y3	Z3	X4	Y4	Z4	X5	Y5	Z5	X6	Y6	Z6	X7	Y7	Z7	X8	Y8	Z8	X9	Y9	Z9	X10	Y10	Z10	X11	Y11	Z11	X12	Y12	Z12	X13	Y13	Z13	X14	Y14	Z14	X15	Y15	Z15	X16	Y16	Z16	X17	Y17	Z17	X18	Y18	Z18	X19	Y19	Z19	X20	Y20	Z20	X21	Y21	Z21	X22	Y22	Z22	X23	Y23	Z23	X24	Y24	Z24	X25	Y25	Z25	X26	Y26	Z26	X27	Y27	Z27
221	2.20000000	249.711807	1349.862915	159.363007	251.997375	1353.836182	-163.287094	170.013199	1380.403809	3.238241	328.195557	1303.924561	8.483697	274.828674	1009.131287	279.081116	243.634613	1029.818848	-275.874908	363.237244	814.911560	312.210434	357.575851	838.816345	-231.235001	356.773132	952.764954	183.040100	393.909973	951.458496	-96.845566	155.173691	930.489258	87.351448	178.257736	922.936951	-58.538067	166.715714	926.713104	14.406691	141.923920	1094.823853	-1.083599	409.406403	1076.074707	13.190630	269.062592	557.939148	208.572754	260.458130	435.981232	141.686218	162.332306	273.035156	165.701645	86.728874	90.500931	86.348961	47.712807	85.000313	28.361042	214.183609	40.959988	94.842766	473.838837	600.476257	-153.520721	487.639496	481.008820	-85.134827	487.869202	263.568878	-119.927444	457.530579	68.466728	-48.633442	410.190491	51.140835	6.200182	594.918335	43.772942	-35.148949
222	2.21000000	255.460693	1350.359863	157.575989	256.529846	1353.790039	-164.933212	174.978058	1380.633057	1.754150	333.180023	1304.128296	6.621872	278.753784	1010.284668	278.840179	248.764252	1029.606567	-276.781738	364.510162	815.272064	314.197159	363.147675	838.935852	-231.932785	362.275452	953.377380	181.849274	398.436157	951.967896	-98.857506	160.686935	930.631653	86.824471	182.941299	922.654663	-58.954418	171.814117	926.643158	13.935026	146.838333	1095.088745	-1.690602	414.366211	1076.320679	11.489263	275.418915	558.293701	208.219833	268.678406	435.746643	142.389420	167.147049	274.581421	165.298370	88.679825	93.732162	85.052383	50.160816	89.211555	26.643394	214.843948	41.028999	94.569008	481.305542	601.555725	-154.443497	491.029266	480.316284	-86.850563	488.707123	262.607422	-121.021759	457.638824	68.291389	-48.829010	410.316040	51.348732	6.101906	595.099609	43.649734	-35.336845
223	2.22000000	260.980316	1350.898682	155.783875	260.942291	1353.836670	-166.604630	179.810608	1380.932983	0.235135	338.047974	1304.423462	4.748956	282.603149	1011.474243	278.540405	253.803818	1029.465942	-277.677643	365.751495	815.748291	316.137985	368.714279	839.177460	-232.532494	367.559631	954.127258	180.764145	402.857971	952.610413	-101.265472	166.131653	930.769165	86.093971	187.647461	922.372986	-59.461445	176.889557	926.571075	13.316263	151.718369	1095.380371	-2.392304	419.238129	1076.621460	9.752419	282.003967	558.738464	208.011108	277.191986	435.551056	143.347656	172.298889	276.284821	165.187439	90.870712	97.242805	84.027382	52.785587	93.772995	25.258715	215.572845	41.134102	94.311440	488.005280	602.546204	-155.471832	493.372528	479.581940	-88.697540	488.790680	261.729706	-122.165436	457.721649	68.195717	-49.041985	410.385254	51.510750	6.033479	595.145386	43.592857	-35.543083
224	2.23000000	266.263336	1351.484253	154.000595	265.227356	1353.968262	-168.294403	184.511719	1381.292358	-1.307542	342.802979	1304.803223	2.867299	286.360138	1012.687378	278.177338	258.748901	1029.383301	-278.564117	366.960739	816.324127	317.994858	374.272522	839.528656	-233.048187	372.651215	954.991394	179.749222	407.183228	953.393921	-104.005043	171.504700	930.892151	85.162453	192.399506	922.142700	-60.099609	181.952103	926.517426	12.531422	156.559631	1095.692505	-3.191719	424.032135	1076.987427	7.971451	288.912567	559.241821	207.974243	285.993042	435.396057	144.548798	177.829788	278.132996	165.382370	93.337723	101.017647	83.314552	55.617832	98.676811	24.253633	216.357529	41.255424	94.076843	493.565460	603.344299	-156.684753	494.909424	478.863892	-90.588310	488.205902	260.949310	-123.363693	457.804352	68.180481	-49.270695	410.419403	51.626114	5.978090	595.098145	43.579552	-35.745956
225	2.24000000	271.319183	1352.118408	152.236069	269.384796	1354.173950	-169.994644	189.092773	1381.704590	-2.863586	347.451843	1305.253662	0.979619	290.014160	1013.911743	277.751984	263.600739	1029.343018	-279.446228	368.158173	816.994446	319.738235	379.820038	839.981201	-233.486107	377.581940	955.954163	178.761429	411.419403	954.311890	-106.989944	176.804840	930.996033	84.049164	197.212509	922.006592	-60.899532	187.008675	926.501312	11.574816	161.356903	1096.018188	-4.088749	428.751007	1077.424316	6.137592	296.223175	559.768127	208.134552	295.078735	435.283264	145.976562	183.780273	280.107483	165.883469	96.117554	105.039948	82.941727	58.702549	103.916420	23.652559	217.176178	41.356270	93.871719	497.761169	603.853149	-158.121872	495.931458	478.217102	-92.425697	487.088470	260.280334	-124.600632	457.900726	68.233788	-49.505150	410.431458	51.705833	5.938742	594.994690	43.591820	-35.928345
